<svg xmlns="http://www.w3.org/2000/svg" width="50" height="50" fill="none"><path d="M7.69 13.108c2.923-3.169 7.346-4.775 13.144-4.775h2.083v5.873l-1.675.335c-2.854.571-4.84 1.694-5.902 3.342-.554.888-.869 1.904-.912 2.95h6.406c.552 0 1.082.219 1.473.61s.61.921.61 1.473V37.5a4.17 4.17 0 0 1-4.167 4.167H6.25c-.553 0-1.082-.22-1.473-.61s-.61-.921-.61-1.473V29.167l.006-6.081c-.019-.231-.415-5.71 3.517-9.977zm33.977 28.558h-12.5c-.552 0-1.082-.22-1.473-.61s-.61-.921-.61-1.473V29.167l.006-6.081c-.019-.231-.415-5.71 3.517-9.977 2.923-3.169 7.346-4.775 13.144-4.775h2.083v5.873l-1.675.335c-2.854.571-4.84 1.694-5.902 3.342-.554.888-.869 1.904-.913 2.95h6.406c.553 0 1.083.219 1.473.61s.61.921.61 1.473V37.5a4.17 4.17 0 0 1-4.167 4.167z" fill="#05376c"/></svg>