<svg width="0" height="0" class="hidden">
  <symbol fill="none" xmlns="http://www.w3.org/2000/svg" viewBox="0 0 25 24" id="login">
    <path d="M12.5 5.9a2.1 2.1 0 110 4.199 2.1 2.1 0 010-4.199zm0 9c2.97 0 6.1 1.46 6.1 2.1v1.1H6.4V17c0-.64 3.13-2.1 6.1-2.1zm0-10.9c-2.21 0-4 1.79-4 4s1.79 4 4 4 4-1.79 4-4-1.79-4-4-4zm0 9c-2.67 0-8 1.34-8 4v3h16v-3c0-2.66-5.33-4-8-4z" fill="#fff"></path>
  </symbol>
  <symbol fill="none" xmlns="http://www.w3.org/2000/svg" viewBox="0 0 24 24" id="search">
    <path d="M21.319 20.027l-6.087-6.086a6.968 6.968 0 001.456-4.285c0-1.88-.734-3.642-2.06-4.97a6.98 6.98 0 00-4.972-2.061 6.99 6.99 0 00-4.97 2.06 6.975 6.975 0 00-2.061 4.971c0 1.878.734 3.645 2.06 4.971a6.975 6.975 0 004.971 2.06 6.97 6.97 0 004.282-1.453l6.087 6.085a.19.19 0 00.136.056.191.191 0 00.136-.056l1.022-1.02a.19.19 0 00.041-.21.191.191 0 00-.041-.062zm-7.95-6.658a5.222 5.222 0 01-3.713 1.537 5.222 5.222 0 01-3.712-1.537 5.222 5.222 0 01-1.538-3.713c0-1.401.546-2.72 1.538-3.712a5.222 5.222 0 013.712-1.538c1.402 0 2.721.544 3.713 1.538a5.222 5.222 0 011.537 3.712 5.218 5.218 0 01-1.537 3.713z" fill="#05376C"></path>
  </symbol>
  <symbol fill="none" xmlns="http://www.w3.org/2000/svg" viewBox="0 0 24 24" id="mail">
    <path d="M20 4H4c-1.1 0-1.99.9-1.99 2L2 18c0 1.1.9 2 2 2h16c1.1 0 2-.9 2-2V6c0-1.1-.9-2-2-2zm0 14H4V8l8 5 8-5v10zm-8-7L4 6h16l-8 5z" fill="#05376C"></path>
  </symbol>
  <symbol fill="none" xmlns="http://www.w3.org/2000/svg" viewBox="0 0 24 24" id="phone">
    <path d="M15 12h2c0-2.76-2.24-5-5-5v2c1.66 0 3 1.34 3 3zm4 0h2a9 9 0 00-9-9v2c3.87 0 7 3.13 7 7zm1 3.5c-1.25 0-2.45-.2-3.57-.57-.1-.03-.21-.05-.31-.05-.26 0-.51.1-.71.29l-2.2 2.2a15.045 15.045 0 01-6.59-6.59l2.2-2.21a.96.96 0 00.25-1A11.36 11.36 0 018.5 4c0-.55-.45-1-1-1H4c-.55 0-1 .45-1 1 0 9.39 7.61 17 17 17 .55 0 1-.45 1-1v-3.5c0-.55-.45-1-1-1zM5.03 5h1.5c.07.88.22 1.75.45 2.58l-1.2 1.21c-.4-1.21-.66-2.47-.75-3.79zM19 18.97c-1.32-.09-2.6-.35-3.8-.76l1.2-1.2c.85.24 1.72.39 2.6.45v1.51z" fill="#05376C"></path>
  </symbol>
  <symbol fill="none" xmlns="http://www.w3.org/2000/svg" viewBox="0 0 24 24" id="time">
    <path d="M11.99 2C6.47 2 2 6.48 2 12s4.47 10 9.99 10C17.52 22 22 17.52 22 12S17.52 2 11.99 2zM12 20c-4.42 0-8-3.58-8-8s3.58-8 8-8 8 3.58 8 8-3.58 8-8 8z" fill="#05376C"></path>
    <path d="M12.5 7H11v6l5.25 3.15.75-1.23-4.5-2.67V7z" fill="#05376C"></path>
  </symbol>
  <symbol fill="none" xmlns="http://www.w3.org/2000/svg" viewBox="0 0 24 24" id="arr-r">
    <path d="M10 6L8.59 7.41 13.17 12l-4.58 4.59L10 18l6-6-6-6z" fill="#05376C"></path>
  </symbol>
  <symbol fill="none" xmlns="http://www.w3.org/2000/svg" viewBox="0 0 29 30" id="place">
    <path d="M14.26 15c-1.307 0-2.377-1.125-2.377-2.5s1.07-2.5 2.377-2.5c1.307 0 2.376 1.125 2.376 2.5S15.566 15 14.26 15zm7.13-2.25c0-4.537-3.15-7.75-7.13-7.75-3.981 0-7.13 3.213-7.13 7.75 0 2.925 2.317 6.8 7.13 11.425 4.812-4.625 7.13-8.5 7.13-11.425zM14.26 2.5c4.99 0 9.506 4.025 9.506 10.25 0 4.15-3.173 9.063-9.506 14.75-6.334-5.688-9.507-10.6-9.507-14.75C4.753 6.525 9.27 2.5 14.26 2.5z" fill="#05376C"></path>
  </symbol>
  <symbol fill="none" xmlns="http://www.w3.org/2000/svg" viewBox="0 0 182 182" id="telegram">
    <path d="M135.044 47.32L34.216 87.36c-3.276 1.092-2.912 5.824.364 6.916l25.48 8.008 10.192 32.032c.728 2.548 4.004 3.276 5.824 1.456L91 121.94l28.392 20.748c2.184 1.456 5.096.364 5.824-2.184l19.656-84.448c1.092-6.188-4.368-10.92-9.828-8.736zm-58.968 61.152L72.8 127.4l-7.28-26.208L136.5 54.6l-60.424 53.872z" fill="#F2F2F2"></path>
  </symbol>
  <symbol fill="none" xmlns="http://www.w3.org/2000/svg" viewBox="0 0 30 30" id="vk">
    <g clip-path="url(#clip0)">
      <path d="M25 16.616v-.771l4.025-5.033c.63-.789.974-1.768.975-2.778 0-.985-.799-1.783-1.784-1.784h-4.385a1.676 1.676 0 00-1.551 1.028 32.08 32.08 0 01-3.325 6.633 1.3 1.3 0 01-1.456.1V7.618a1.375 1.375 0 00-1.366-1.368h-5.508a.625.625 0 00-.443 1.068l.343.342a2.46 2.46 0 01.725 1.748v4.75a.412.412 0 01-.216.116.953.953 0 01-.592-.338 54.571 54.571 0 01-4.26-7.343.625.625 0 00-.557-.343h-4C.728 6.25 0 6.978 0 7.875v.319a7.07 7.07 0 001.061 3.731c3.353 5.394 7.95 11.825 10.814 11.825h4.089a1.539 1.539 0 001.536-1.536v-1.07a1.142 1.142 0 011.951-.808l2.595 2.595a2.788 2.788 0 001.98.819h4.46a1.511 1.511 0 001.068-2.579L25 16.616z" fill="#E0E0E0"></path>
    </g>
    <defs>
      <clipPath id="clip0">
        <path fill="#fff" d="M0 0h30v30H0z"></path>
      </clipPath>
    </defs>
  </symbol>
  <symbol fill="none" xmlns="http://www.w3.org/2000/svg" viewBox="0 0 30 30" id="twitter">
    <path d="M27.195 7.442a.529.529 0 00-.635-.113 4.47 4.47 0 01-.676.245c.361-.462.634-.987.804-1.548a.53.53 0 00-.814-.57c-.805.436-1.66.77-2.546.996a5.324 5.324 0 00-6.671-.515 5.25 5.25 0 00-2.286 4.851 12.527 12.527 0 01-8.773-4.725.547.547 0 00-.45-.198.529.529 0 00-.423.258 5.12 5.12 0 00-.584 3.975 5.66 5.66 0 00.92 1.923 2.81 2.81 0 01-.538-.344.529.529 0 00-.862.41 5.471 5.471 0 002.818 4.698 3.925 3.925 0 01-.681-.146.529.529 0 00-.635.724 5.774 5.774 0 004.008 3.28 9.322 9.322 0 01-5.581 1.149.53.53 0 00-.32.986A15.855 15.855 0 0011.087 25c2.644-.01 5.225-.8 7.421-2.27 4.194-2.782 6.807-7.778 6.443-12.249a9.884 9.884 0 002.3-2.397.53.53 0 00-.057-.642z" fill="#E0E0E0"></path>
  </symbol>
  <symbol fill="none" xmlns="http://www.w3.org/2000/svg" viewBox="0 0 30 30" id="facebook">
    <path d="M17.5 7h3a.5.5 0 00.5-.5v-3a.5.5 0 00-.5-.5h-3A5.506 5.506 0 0012 8.5V12H8.5a.5.5 0 00-.5.5v3a.5.5 0 00.5.5H12v10.5a.5.5 0 00.5.5h3a.5.5 0 00.5-.5V16h3.5a.5.5 0 00.474-.341l1-3A.5.5 0 0020.5 12H16V8.5A1.5 1.5 0 0117.5 7z" fill="#E0E0E0"></path>
  </symbol>
  <symbol fill="none" xmlns="http://www.w3.org/2000/svg" viewBox="0 0 29 30" id="mailw">
    <path d="M23.766 5H4.753C3.446 5 2.39 6.125 2.39 7.5l-.012 15c0 1.375 1.07 2.5 2.376 2.5h19.013c1.308 0 2.377-1.125 2.377-2.5v-15c0-1.375-1.07-2.5-2.377-2.5zm0 17.5H4.753V10l9.507 6.25L23.766 10v12.5zm-9.506-8.75L4.753 7.5h19.013l-9.506 6.25z" fill="#F2F2F2"></path>
  </symbol>
  <symbol fill="none" xmlns="http://www.w3.org/2000/svg" viewBox="0 0 29 30" id="phonew">
    <path d="M17.825 15H20.2c0-3.45-2.662-6.25-5.941-6.25v2.5c1.972 0 3.565 1.675 3.565 3.75zm4.753 0h2.377c0-2.984-1.127-5.845-3.133-7.955-2.006-2.11-4.726-3.295-7.562-3.295v2.5c4.598 0 8.318 3.912 8.318 8.75zm1.188 4.375c-1.485 0-2.911-.25-4.242-.712a1.266 1.266 0 00-.368-.063c-.31 0-.606.125-.844.362l-2.614 2.75c-3.374-1.804-6.116-4.689-7.831-8.237l2.614-2.762a1.23 1.23 0 00.322-.58 1.26 1.26 0 00-.025-.67c-.45-1.44-.68-2.947-.677-4.463 0-.688-.535-1.25-1.189-1.25H4.753c-.653 0-1.188.563-1.188 1.25 0 11.738 9.043 21.25 20.201 21.25.654 0 1.189-.563 1.189-1.25v-4.375c0-.688-.535-1.25-1.189-1.25zM5.977 6.25H7.76c.083 1.1.261 2.188.534 3.225l-1.426 1.513a20.063 20.063 0 01-.89-4.738zm16.6 17.462a16.946 16.946 0 01-4.515-.95l1.426-1.5c1.01.3 2.044.488 3.09.563v1.887z" fill="#F2F2F2"></path>
  </symbol>
  <symbol fill="none" xmlns="http://www.w3.org/2000/svg" viewBox="0 0 30 30" id="whatsapp">
    <path fill-rule="evenodd" clip-rule="evenodd" d="M22.973 7.036a11.132 11.132 0 00-7.926-3.285c-6.174 0-11.203 5.025-11.203 11.198a11.14 11.14 0 001.494 5.6L3.75 26.353l5.94-1.56a11.21 11.21 0 005.353 1.366h.005c6.174 0 11.198-5.024 11.202-11.202 0-2.992-1.164-5.805-3.277-7.922zm-7.926 17.23h-.004a9.31 9.31 0 01-4.739-1.297l-.34-.201-3.527.923.941-3.436-.22-.351a9.285 9.285 0 01-1.424-4.955c0-5.13 4.178-9.305 9.317-9.305a9.246 9.246 0 016.58 2.728 9.26 9.26 0 012.724 6.585c0 5.134-4.178 9.309-9.31 9.309h.002zm5.105-6.973c-.279-.139-1.656-.816-1.912-.908-.256-.095-.443-.14-.63.139-.188.281-.722.912-.886 1.099-.161.182-.326.209-.605.07-.28-.14-1.182-.437-2.252-1.392-.831-.74-1.395-1.66-1.556-1.938-.165-.281-.018-.431.121-.572.128-.124.281-.325.421-.49.139-.16.188-.278.281-.465.092-.187.045-.352-.025-.49-.07-.14-.629-1.52-.863-2.08-.228-.546-.459-.47-.63-.48-.162-.007-.348-.007-.535-.007-.187 0-.491.069-.748.351-.256.279-.978.956-.978 2.333 0 1.377 1.003 2.71 1.144 2.897.139.182 1.973 3.009 4.781 4.222.668.289 1.187.461 1.594.59.67.212 1.282.183 1.765.112.538-.08 1.655-.677 1.89-1.332.231-.652.231-1.212.16-1.33-.069-.116-.255-.187-.537-.33z" fill="#E0E0E0"></path>
  </symbol>
  <symbol fill="none" xmlns="http://www.w3.org/2000/svg" viewBox="0 0 30 30" id="telegram">
    <path d="M22.26 7.8L5.64 14.4c-.54.18-.48.96.06 1.14l4.2 1.32 1.68 5.28c.12.42.66.54.96.24L15 20.1l4.68 3.42c.36.24.84.06.96-.36l3.24-13.92c.18-1.02-.72-1.8-1.62-1.44zm-9.72 10.08L12 21l-1.2-4.32L22.5 9l-9.96 8.88z" fill="#E0E0E0"></path>
  </symbol>
  <symbol fill="none" xmlns="http://www.w3.org/2000/svg" viewBox="0 0 30 30" id="instagram">
    <path d="M26.928 10.053c-.058-1.277-.261-2.15-.558-2.913a5.88 5.88 0 00-1.384-2.125A5.883 5.883 0 0022.86 3.63c-.763-.296-1.635-.499-2.912-.557C18.668 3.014 18.259 3 15 3c-3.259 0-3.668.014-4.947.073-1.278.058-2.15.26-2.913.558-.801.3-1.526.773-2.126 1.384A5.882 5.882 0 003.63 7.14c-.297.763-.5 1.636-.557 2.913C3.013 11.333 3 11.74 3 15s.014 3.668.073 4.948c.058 1.277.26 2.15.557 2.913a5.88 5.88 0 001.384 2.125A5.88 5.88 0 007.14 26.37c.763.297 1.635.5 2.913.558 1.28.059 1.688.072 4.947.072 3.26 0 3.668-.013 4.948-.072 1.277-.058 2.15-.26 2.913-.558a6.135 6.135 0 003.51-3.509c.296-.763.499-1.636.557-2.913.058-1.28.072-1.689.072-4.947 0-3.26-.014-3.668-.072-4.948zm-2.16 9.797c-.053 1.17-.249 1.805-.413 2.228a3.973 3.973 0 01-2.278 2.277c-.422.165-1.058.36-2.228.414-1.265.058-1.645.07-4.849.07s-3.584-.012-4.85-.07c-1.169-.054-1.804-.25-2.227-.413a3.717 3.717 0 01-1.38-.898 3.718 3.718 0 01-.898-1.38c-.164-.423-.36-1.058-.413-2.228-.058-1.266-.07-1.645-.07-4.85 0-3.204.012-3.583.07-4.848.054-1.17.249-1.806.413-2.229.193-.521.5-.992.898-1.38a3.716 3.716 0 011.38-.897c.423-.165 1.058-.36 2.228-.413 1.265-.058 1.645-.07 4.85-.07H15c3.204 0 3.584.012 4.85.07 1.17.053 1.804.249 2.227.413a3.72 3.72 0 011.38.897c.399.388.705.859.898 1.38.164.423.36 1.058.413 2.229.058 1.265.07 1.644.07 4.849 0 3.204-.012 3.583-.07 4.849z" fill="#E0E0E0"></path>
    <path d="M15 8.838a6.162 6.162 0 100 12.325 6.162 6.162 0 000-12.325zm0 10.163a4 4 0 110-8 4 4 0 010 8zm7.846-10.406a1.44 1.44 0 11-2.88 0 1.44 1.44 0 012.88 0z" fill="#E0E0E0"></path>
  </symbol>
</svg>